<svg xmlns="http://www.w3.org/2000/svg" xmlns:xlink="http://www.w3.org/1999/xlink" viewBox="0 0 589.94 292.85">
  <defs>
    <style>
      .cls-1 {
        fill: none;
      }

      .cls-2, .cls-7 {
        fill: #59caad;
      }

      .cls-3, .cls-5 {
        fill: #ffda66;
      }

      .cls-4 {
        clip-path: url(#clip-path);
      }

      .cls-11, .cls-5, .cls-7 {
        fill-rule: evenodd;
      }

      .cls-6 {
        clip-path: url(#clip-path-2);
      }

      .cls-8 {
        clip-path: url(#clip-path-3);
      }

      .cls-11, .cls-9 {
        fill: #ee6ca6;
      }

      .cls-10 {
        clip-path: url(#clip-path-4);
      }
    </style>
    <clipPath id="clip-path">
      <rect class="cls-1" x="562" y="268.2" width="28.13" height="25"/>
    </clipPath>
    <clipPath id="clip-path-2">
      <rect class="cls-1" x="236" y="264.2" width="28.13" height="25"/>
    </clipPath>
    <clipPath id="clip-path-3">
      <rect class="cls-1" x="39" y="96.2" width="28.13" height="25"/>
    </clipPath>
    <clipPath id="clip-path-4">
      <rect class="cls-1" x="304.67" y="0.06" width="21.13" height="19"/>
    </clipPath>
  </defs>
  <title>thanks</title>
  <g id="Ebene_2" data-name="Ebene 2">
    <g id="Flat_Design" data-name="Flat Design">
      <g>
        <circle id="Ellipse_26" data-name="Ellipse 26" class="cls-2" cx="423.5" cy="114.7" r="6.5"/>
        <circle id="Ellipse_27" data-name="Ellipse 27" class="cls-3" cx="379.5" cy="218.7" r="6.5"/>
        <g class="cls-4">
          <path id="Heart" class="cls-5" d="M587.7,270.43a7.5,7.5,0,0,0-10.61-.07l-.07.07-1,1.05-1.05-1.05a7.56,7.56,0,0,0-10.69,10.69L576,292.85l11.73-11.73a7.51,7.51,0,0,0,.07-10.62l-.07-.07"/>
        </g>
        <g class="cls-6">
          <path id="Heart-2" class="cls-7" d="M261.7,266.43a7.5,7.5,0,0,0-10.61-.07l-.07.07L250,267.48l-1.05-1.05a7.56,7.56,0,0,0-10.69,10.69L250,288.85l11.73-11.73a7.51,7.51,0,0,0,.07-10.62.46.46,0,0,0-.07-.07"/>
        </g>
        <g class="cls-8">
          <path id="Heart-3" class="cls-5" d="M64.7,98.43a7.5,7.5,0,0,0-10.61-.07l-.07.07-1.05,1-1-1a7.56,7.56,0,0,0-10.69,10.69L53,120.85,64.7,109.12a7.51,7.51,0,0,0,.07-10.62.46.46,0,0,0-.07-.07"/>
        </g>
        <circle id="Ellipse_28" data-name="Ellipse 28" class="cls-3" cx="6.5" cy="218.7" r="6.5"/>
        <circle id="Ellipse_29" data-name="Ellipse 29" class="cls-3" cx="105.5" cy="202.7" r="3.5"/>
        <circle id="Ellipse_31" data-name="Ellipse 31" class="cls-9" cx="87.5" cy="276.7" r="3.5"/>
        <circle id="Ellipse_32" data-name="Ellipse 32" class="cls-3" cx="480.5" cy="202.7" r="3.5"/>
        <circle id="Ellipse_32-2" data-name="Ellipse 32" class="cls-3" cx="230.5" cy="39.7" r="3.5"/>
        <circle id="Ellipse_30" data-name="Ellipse 30" class="cls-9" cx="146.5" cy="33.7" r="6.5"/>
        <circle id="Ellipse_33" data-name="Ellipse 33" class="cls-3" cx="250" cy="139.2" r="73"/>
        <image width="600" height="501" transform="translate(191.55 82.7) rotate(10.84) scale(0.21)" xlink:href="../../../Logo%20Ideas/Logo-icon-white.png"/>
        <g class="cls-10">
          <g id="icon_heart" data-name="icon heart">
            <path id="Heart-2-2" data-name="Heart" class="cls-11" d="M323.93,1.73A5.62,5.62,0,0,0,316,1.68l-.05.05-.79.79-.79-.79a5.66,5.66,0,0,0-8.15,7.86l.14.15,8.8,8.79,8.79-8.79a5.63,5.63,0,0,0,.05-8l-.05-.05"/>
          </g>
        </g>
      </g>
    </g>
  </g>
</svg>
